# xmcd
#
# Track frame offsets:
#	150
#	16220
#	34355
#	52237
#	68395
#	85997
#	106322
#	121925
#
# Disc length: 1904 seconds
#
# Revision: 0
# Processed by: cddbd v1.5.2PL0 Copyright (c) Steve Scherf et al.
# Submitted via: dBpowerAMP V4.0
#
DISCID=63076e08
DTITLE=Suffer - Structures
DYEAR=1994
DGENRE=Death Metal
TTITLE0=Temporary sane
TTITLE1=Passionate with structures
TTITLE2=Lies within
TTITLE3=SElected genes
TTITLE4=A frenetci mind
TTITLE5=Maginary homecoming
TTITLE6=The killing culture
TTITLE7=Freedom of speech
EXTD=
EXTT0=
EXTT1=
EXTT2=
EXTT3=
EXTT4=
EXTT5=
EXTT6=
EXTT7=
PLAYORDER=
